<svg viewBox="0 0 120 44" fill="none" xmlns="http://www.w3.org/2000/svg">
  <path d="M101.463 31.891V11.198c0-.313.25-.594.563-.594h7.002c6.033 0 10.972 4.907 10.972 10.91 0 6.064-4.939 10.971-10.972 10.971h-7.002c-.313 0-.563-.281-.563-.594Zm2.376-1.563h4.907c5.127 0 8.722-3.657 8.722-8.815 0-5.126-3.595-8.784-8.722-8.784h-4.907v17.6ZM93.037 31.892V11.198c0-.313.281-.594.594-.594h1.25c.313 0 .594.281.594.594v20.694a.615.615 0 0 1-.594.593h-1.25a.615.615 0 0 1-.594-.593ZM72.707 31.891V11.198c0-.313.25-.594.594-.594h8.096c3.751 0 6.815 2.938 6.815 6.658 0 2.876-1.907 5.283-4.627 6.377l4.283 7.94c.219.406 0 .906-.531.906h-1.5c-.376 0-.532-.156-.689-.468l-4.063-8.097h-5.971v7.971a.615.615 0 0 1-.594.594h-1.219a.594.594 0 0 1-.594-.594Zm2.47-10.034h6.064c2.407 0 4.501-2 4.501-4.564 0-2.376-2.094-4.407-4.501-4.407h-6.064v8.971ZM48.375 21.576A11.26 11.26 0 0 1 59.66 10.29c3.157 0 5.439 1.094 7.565 2.907.25.25.28.625.03.875-.28.282-.624.594-.874.876-.282.312-.47.281-.813-.032-1.594-1.406-3.845-2.438-5.94-2.438-4.938 0-8.69 4.127-8.69 8.972 0 4.814 3.752 9.034 8.69 9.034 3.439 0 5.627-1.313 5.627-1.313v-4.377H61.66c-.343 0-.594-.25-.594-.562v-1.157c0-.344.25-.594.594-.594h5.408c.313 0 .563.282.563.594v7.159a.772.772 0 0 1-.25.5s-3.189 2.063-7.721 2.063c-6.252 0-11.285-4.97-11.285-11.222Z" fill="#454A67"/>
  <path d="M36.19 16.768c-.689 5.408-7.508 5.292-10.72 4.665-7.051-1.372-11.66-5.292-19.18-9.364-8.965-4.846-10.242 13.647 8.874 20.216a24.518 24.518 0 0 0 8.564 1.224c6.399-.2 13.438-6.026 12.461-16.741Z" fill="url(#a)"/>
  <path d="M22.99 35.091c-5.908.042-8.608-.14-10.514 1.37-1.406 1.113-2.746 3.038-2.746 7.178 5.387 0 10.5-2.81 13.26-8.548Z" fill="#53D55E"/>
  <path d="M35.74 14.306c-1.351-5.483-4.9-9.92-7.476-11.918-2.252-1.75-5.062-2.994-6.62-1.019-1.25 1.58-.717 5.188.536 8.048 1.093 2.486 2.531 6.282 3.094 10.25 2.766.557 9.948.964 10.467-5.361Z" fill="url(#b)"/>
  <path d="M36.188 16.768c-.688 5.408-7.507 5.292-10.72 4.665.024.368.066 7.722-1.73 12.075 6.387-.199 13.427-6.025 12.45-16.74Z" fill="#5FCA9D"/>
  <defs>
    <linearGradient id="a" x1="25.608" y1="28.054" x2="10.909" y2="17.838" gradientUnits="userSpaceOnUse">
      <stop stop-color="#89E291"/>
      <stop offset="1" stop-color="#53D55E"/>
    </linearGradient>
    <linearGradient id="b" x1="28.289" y1="20.014" x2="22.762" y2="6.816" gradientUnits="userSpaceOnUse">
      <stop stop-color="#77F2F2"/>
      <stop offset="1" stop-color="#3CB3CD"/>
    </linearGradient>
  </defs>
</svg>
